<svg data-v-fde0c5aa="" xmlns="http://www.w3.org/2000/svg" viewBox="0 0 300 300" class="iconLeft"><!----><defs data-v-fde0c5aa=""><linearGradient data-v-fde0c5aa="" gradientTransform="rotate(25)" id="ec4ec300-5278-4f6b-a804-02a0d7350f3e" x1="0%" y1="0%" x2="100%" y2="0%"><stop data-v-fde0c5aa="" offset="0%" stop-color="#49247E" stop-opacity="1"></stop><stop data-v-fde0c5aa="" offset="100%" stop-color="#AA49C7" stop-opacity="1"></stop></linearGradient></defs><rect data-v-fde0c5aa="" fill="url(#ec4ec300-5278-4f6b-a804-02a0d7350f3e)" x="0" y="0" width="300px" height="300px" class="logo-background-square"></rect><defs data-v-fde0c5aa=""><!----></defs><g data-v-fde0c5aa="" id="fdb5f78d-5cc2-4a86-acdd-3647a5eb3560" fill="#ffffff" transform="matrix(1.920543333648591,0,0,1.920543333648591,82.0616642470496,134.674064618746)"><path d="M5.11 3.64Q7.32 3.64 8.56 4.89Q9.80 6.15 9.80 8.40L9.80 8.40Q9.80 10.65 8.56 11.91Q7.32 13.16 5.11 13.16L5.11 13.16Q3.65 13.16 2.60 12.60Q1.54 12.04 0.97 10.97Q0.41 9.90 0.41 8.40L0.41 8.40Q0.41 6.90 0.97 5.83Q1.54 4.76 2.60 4.20Q3.65 3.64 5.11 3.64L5.11 3.64ZM5.11 6.09Q4.40 6.09 4.07 6.64Q3.74 7.20 3.74 8.40L3.74 8.40Q3.74 9.60 4.07 10.16Q4.40 10.71 5.11 10.71L5.11 10.71Q5.82 10.71 6.15 10.16Q6.47 9.60 6.47 8.40L6.47 8.40Q6.47 7.20 6.15 6.64Q5.82 6.09 5.11 6.09L5.11 6.09ZM16.73 9.55L16.02 13.02L12.43 13.02L9.81 3.78L13.33 3.78L14.41 10.46L15.71 3.78L18.51 3.78L19.88 10.42L20.93 3.78L24.32 3.78L21.69 13.02L18.23 13.02L17.50 9.55L17.14 7.18L17.09 7.18L16.73 9.55ZM28.14 3.78L28.14 6.08L27.80 9.94L25.12 9.94L24.78 6.08L24.78 3.78L28.14 3.78ZM26.46 10.43Q27.24 10.43 27.67 10.78Q28.10 11.13 28.10 11.77L28.10 11.77Q28.10 12.42 27.67 12.77Q27.24 13.12 26.46 13.12L26.46 13.12Q25.68 13.12 25.25 12.77Q24.82 12.42 24.82 11.77L24.82 11.77Q24.82 11.13 25.25 10.78Q25.68 10.43 26.46 10.43L26.46 10.43ZM38.64 13.02L37.00 9.95L36.11 9.95L36.11 13.02L32.91 13.02L32.91 3.78L37.93 3.78Q39.77 3.78 40.72 4.56Q41.66 5.33 41.66 6.87L41.66 6.87Q41.66 8.90 40.00 9.60L40.00 9.60L42.18 13.02L38.64 13.02ZM36.11 6.10L36.11 7.81L37.27 7.81Q37.88 7.81 38.14 7.62Q38.40 7.43 38.40 6.96L38.40 6.96Q38.40 6.50 38.14 6.30Q37.88 6.10 37.27 6.10L37.27 6.10L36.11 6.10ZM49.97 9.30Q49.97 9.83 49.90 10.14L49.90 10.14L45.44 10.14Q45.51 10.65 45.74 10.84Q45.96 11.02 46.41 11.02L46.41 11.02Q47.10 11.02 47.25 10.42L47.25 10.42L49.84 11.12Q49.60 12.12 48.67 12.64Q47.74 13.16 46.41 13.16L46.41 13.16Q44.42 13.16 43.39 12.22Q42.36 11.28 42.36 9.52L42.36 9.52Q42.36 7.78 43.38 6.83Q44.39 5.88 46.24 5.88L46.24 5.88Q48.05 5.88 49.01 6.80Q49.97 7.73 49.97 9.30L49.97 9.30ZM46.26 8.01Q45.89 8.01 45.70 8.22Q45.50 8.43 45.44 8.95L45.44 8.95L46.96 8.95Q46.91 8.47 46.75 8.24Q46.59 8.01 46.26 8.01L46.26 8.01ZM60.58 5.88Q61.61 5.88 62.20 6.50Q62.78 7.11 62.78 8.23L62.78 8.23L62.78 13.02L59.56 13.02L59.56 9.07Q59.56 8.61 59.44 8.43Q59.33 8.26 59.07 8.26L59.07 8.26Q58.72 8.26 58.56 8.53Q58.39 8.79 58.39 9.35L58.39 9.35L58.39 13.02L55.17 13.02L55.17 9.07Q55.17 8.61 55.06 8.43Q54.95 8.26 54.68 8.26L54.68 8.26Q54.33 8.26 54.17 8.53Q54.01 8.79 54.01 9.35L54.01 9.35L54.01 13.02L50.79 13.02L50.79 6.02L53.69 6.02L53.76 7.55Q54.07 6.73 54.68 6.31Q55.30 5.88 56.20 5.88L56.20 5.88Q56.99 5.88 57.52 6.24Q58.04 6.61 58.27 7.28L58.27 7.28Q58.60 6.59 59.19 6.24Q59.77 5.88 60.58 5.88L60.58 5.88ZM71.19 9.30Q71.19 9.83 71.12 10.14L71.12 10.14L66.67 10.14Q66.74 10.65 66.96 10.84Q67.19 11.02 67.63 11.02L67.63 11.02Q68.32 11.02 68.47 10.42L68.47 10.42L71.06 11.12Q70.83 12.12 69.89 12.64Q68.96 13.16 67.63 13.16L67.63 13.16Q65.65 13.16 64.62 12.22Q63.59 11.28 63.59 9.52L63.59 9.52Q63.59 7.78 64.60 6.83Q65.62 5.88 67.47 5.88L67.47 5.88Q69.27 5.88 70.23 6.80Q71.19 7.73 71.19 9.30L71.19 9.30ZM67.48 8.01Q67.12 8.01 66.92 8.22Q66.72 8.43 66.67 8.95L66.67 8.95L68.18 8.95Q68.14 8.47 67.98 8.24Q67.82 8.01 67.48 8.01L67.48 8.01ZM66.96 2.80L69.83 2.80L68.39 5.28L66.12 5.28L66.96 2.80ZM76.48 3.22L79.70 3.22L79.70 13.02L76.80 13.02L76.71 11.63Q76.40 12.35 75.84 12.75Q75.28 13.16 74.49 13.16L74.49 13.16Q73.21 13.16 72.51 12.22Q71.82 11.28 71.82 9.56L71.82 9.56Q71.82 7.81 72.53 6.85Q73.23 5.88 74.51 5.88L74.51 5.88Q75.22 5.88 75.71 6.23Q76.20 6.58 76.48 7.20L76.48 7.20L76.48 3.22ZM75.80 10.91Q76.13 10.91 76.31 10.59Q76.48 10.28 76.48 9.58L76.48 9.58L76.48 9.46Q76.48 8.79 76.31 8.47Q76.15 8.15 75.80 8.15L75.80 8.15Q75.43 8.15 75.25 8.44Q75.07 8.74 75.07 9.52L75.07 9.52Q75.07 10.30 75.25 10.61Q75.43 10.91 75.80 10.91L75.80 10.91ZM82.40 5.57Q81.45 5.57 81.05 5.26Q80.65 4.96 80.65 4.23L80.65 4.23Q80.65 3.50 81.05 3.19Q81.45 2.88 82.40 2.88L82.40 2.88Q83.36 2.88 83.76 3.19Q84.15 3.50 84.15 4.23L84.15 4.23Q84.15 4.96 83.76 5.26Q83.36 5.57 82.40 5.57L82.40 5.57ZM84.01 6.02L84.01 13.02L80.79 13.02L80.79 6.02L84.01 6.02ZM88.75 5.88Q90.61 5.88 91.63 6.83Q92.65 7.78 92.65 9.52L92.65 9.52Q92.65 11.26 91.63 12.21Q90.61 13.16 88.75 13.16L88.75 13.16Q86.88 13.16 85.86 12.21Q84.84 11.26 84.84 9.52L84.84 9.52Q84.84 7.78 85.86 6.83Q86.88 5.88 88.75 5.88L88.75 5.88ZM88.75 8.05Q88.47 8.05 88.33 8.18Q88.19 8.30 88.13 8.61Q88.07 8.92 88.07 9.52L88.07 9.52Q88.07 10.12 88.13 10.43Q88.19 10.74 88.33 10.86Q88.47 10.99 88.75 10.99L88.75 10.99Q89.03 10.99 89.17 10.86Q89.31 10.74 89.36 10.43Q89.42 10.12 89.42 9.52L89.42 9.52Q89.42 8.92 89.36 8.61Q89.31 8.30 89.17 8.18Q89.03 8.05 88.75 8.05L88.75 8.05Z"></path></g><defs data-v-fde0c5aa=""><!----></defs><g data-v-fde0c5aa="" id="156be9a9-2243-432b-892d-036e452fa6d5" stroke="none" fill="#ffffff" transform="matrix(0.42168891066597064,0,0,0.42168891066597064,34.09851401272366,128.55063400040052)"><path d="M44.74 20.384l-1.053-1.033-.078.078a18.205 18.205 0 00-24.242 1.425 18.206 18.206 0 00-1.418 24.242l-.087.088 35.739 35.729c7.123 7.121 18.714 7.12 25.836-.002l.003-.003c7.121-7.125 7.119-18.716-.004-25.838L44.74 20.384zm-21.983 3.619c5.068-5.069 12.802-5.553 17.276-1.081L53.624 36.51l-3.029 3.029-13.434-13.432c-4.179-4.178-11.202-4.029-16.241.14a14.582 14.582 0 011.837-2.244zm54.597 54.82l1.04 1.044-1.042-1.042c-5.973 5.973-15.693 5.974-21.667.002L38.1 61.247l21.666-21.673 17.585 17.58c5.974 5.974 5.975 15.695.003 21.669z"></path></g><!----></svg>